<?xml version="1.0" encoding="UTF-8"?>
<!DOCTYPE svg PUBLIC "-//W3C//DTD SVG 1.1//EN" "http://www.w3.org/Graphics/SVG/1.1/DTD/svg11.dtd">
<svg xmlns="http://www.w3.org/2000/svg" version="1.1" width="1177px" height="1153px" style="shape-rendering:geometricPrecision; text-rendering:geometricPrecision; image-rendering:optimizeQuality; fill-rule:evenodd; clip-rule:evenodd" xmlns:xlink="http://www.w3.org/1999/xlink">
<g><path style="opacity:1" fill="#fefefe" d="M -0.5,-0.5 C 391.833,-0.5 784.167,-0.5 1176.5,-0.5C 1176.5,383.833 1176.5,768.167 1176.5,1152.5C 784.167,1152.5 391.833,1152.5 -0.5,1152.5C -0.5,768.167 -0.5,383.833 -0.5,-0.5 Z"/></g>
<g><path style="opacity:1" fill="#7d3bed" d="M 559.5,22.5 C 734.606,16.0049 882.773,75.3382 1004,200.5C 1117.41,327.391 1166.07,476.057 1150,646.5C 1125.48,820.503 1040.64,956.003 895.5,1053C 767.003,1132.5 628.337,1158.16 479.5,1130C 330.172,1096.23 212.672,1016.4 127,890.5C 47.1393,766.207 18.806,630.874 42,484.5C 73.9852,324.635 157.485,199.802 292.5,110C 374.094,58.3022 463.094,29.1355 559.5,22.5 Z"/></g>
<g><path style="opacity:1" fill="#fefefe" d="M 565.5,56.5 C 751.948,52.4896 902.114,123.49 1016,269.5C 1108.63,399.385 1138.63,542.718 1106,699.5C 1064.26,863.884 967.424,983.384 815.5,1058C 687.559,1115 556.892,1122 423.5,1079C 302.076,1035.4 207.909,958.564 141,848.5C 68.7258,720.116 50.7258,584.449 87,441.5C 133.422,286.773 229.255,174.273 374.5,104C 435.478,77.0055 499.144,61.1722 565.5,56.5 Z"/></g>
<g><path style="opacity:1" fill="#7c3aed" d="M 238.5,335.5 C 475.167,335.333 711.834,335.5 948.5,336C 958,338.833 964.167,345 967,354.5C 967.667,391.5 967.667,428.5 967,465.5C 963.624,476.211 956.457,482.711 945.5,485C 710.833,485.667 476.167,485.667 241.5,485C 229.68,482.513 222.513,475.346 220,463.5C 219.333,427.5 219.333,391.5 220,355.5C 222.587,345.417 228.753,338.75 238.5,335.5 Z"/></g>
<g><path style="opacity:1" fill="#fefefe" d="M 311.5,359.5 C 340.464,358.643 359.297,371.976 368,399.5C 371.628,431.767 357.794,451.934 326.5,460C 295.718,462.197 276.551,448.364 269,418.5C 267.013,387.124 281.18,367.458 311.5,359.5 Z"/></g>
<g><path style="opacity:1" fill="#fefefe" d="M 772.5,363.5 C 778.039,362.638 782.872,363.972 787,367.5C 787.667,395.833 787.667,424.167 787,452.5C 786.626,453.416 786.126,454.25 785.5,455C 781.259,456.457 776.926,456.791 772.5,456C 770.667,455.5 769.5,454.333 769,452.5C 768.333,424.167 768.333,395.833 769,367.5C 770.376,366.295 771.542,364.962 772.5,363.5 Z"/></g>
<g><path style="opacity:1" fill="#fbf9fe" d="M 809.5,363.5 C 813.605,363.234 817.605,363.734 821.5,365C 822.701,365.903 823.535,367.069 824,368.5C 824.667,396.167 824.667,423.833 824,451.5C 822.063,455.386 818.897,457.053 814.5,456.5C 810.103,457.053 806.937,455.386 805,451.5C 804.333,424.167 804.333,396.833 805,369.5C 806.332,367.34 807.832,365.34 809.5,363.5 Z"/></g>
<g><path style="opacity:1" fill="#fbf9fe" d="M 846.5,363.5 C 852.476,362.224 857.309,363.89 861,368.5C 861.667,396.167 861.667,423.833 861,451.5C 858.925,455.537 855.592,457.204 851,456.5C 846.56,457.389 843.56,455.722 842,451.5C 841.333,423.833 841.333,396.167 842,368.5C 843.193,366.503 844.693,364.836 846.5,363.5 Z"/></g>
<g><path style="opacity:1" fill="#d9c7f9" d="M 500.5,391.5 C 500.5,404.167 500.5,416.833 500.5,429.5C 550.167,429.5 599.833,429.5 649.5,429.5C 649.5,416.833 649.5,404.167 649.5,391.5C 650.495,404.323 650.829,417.323 650.5,430.5C 600.167,430.5 549.833,430.5 499.5,430.5C 499.171,417.323 499.505,404.323 500.5,391.5 Z"/></g>
<g><path style="opacity:1" fill="#fefffe" d="M 500.5,391.5 C 550.167,391.5 599.833,391.5 649.5,391.5C 649.5,404.167 649.5,416.833 649.5,429.5C 599.833,429.5 550.167,429.5 500.5,429.5C 500.5,416.833 500.5,404.167 500.5,391.5 Z"/></g>
<g><path style="opacity:1" fill="#7c3aed" d="M 239.5,506.5 C 475.5,506.333 711.5,506.5 947.5,507C 957.333,510.167 963.833,516.667 967,526.5C 967.667,563.167 967.667,599.833 967,636.5C 964.6,646.567 958.434,653.067 948.5,656C 711.5,656.667 474.5,656.667 237.5,656C 227.525,652.224 221.692,645.057 220,634.5C 219.333,598.5 219.333,562.5 220,526.5C 223.351,516.65 229.851,509.983 239.5,506.5 Z"/></g>
<g><path style="opacity:1" fill="#fefefe" d="M 308.5,531.5 C 338.764,528.867 358.597,541.867 368,570.5C 371.87,600.943 359.37,621.11 330.5,631C 308.395,635.189 290.562,628.356 277,610.5C 262.277,584.076 266.11,560.909 288.5,541C 294.874,536.977 301.54,533.811 308.5,531.5 Z"/></g>
<g><path style="opacity:1" fill="#fefefe" d="M 772.5,535.5 C 776.182,535.335 779.848,535.501 783.5,536C 785.333,536.5 786.5,537.667 787,539.5C 787.667,567.5 787.667,595.5 787,623.5C 785.2,627.235 782.2,628.902 778,628.5C 773.8,628.902 770.8,627.235 769,623.5C 768.333,595.5 768.333,567.5 769,539.5C 769.69,537.65 770.856,536.316 772.5,535.5 Z"/></g>
<g><path style="opacity:1" fill="#fbf9fe" d="M 808.5,535.5 C 812.514,535.334 816.514,535.501 820.5,536C 821.667,537.167 822.833,538.333 824,539.5C 824.667,567.5 824.667,595.5 824,623.5C 821.972,627.134 818.806,628.8 814.5,628.5C 809.967,628.651 806.8,626.651 805,622.5C 804.333,595.167 804.333,567.833 805,540.5C 805.997,538.677 807.164,537.01 808.5,535.5 Z"/></g>
<g><path style="opacity:1" fill="#fbf9fe" d="M 845.5,535.5 C 849.514,535.334 853.514,535.501 857.5,536C 859.049,537.214 860.215,538.714 861,540.5C 861.667,567.833 861.667,595.167 861,622.5C 859.065,626.802 855.732,628.802 851,628.5C 846.262,628.972 843.262,626.972 842,622.5C 841.333,594.833 841.333,567.167 842,539.5C 843.376,538.295 844.542,536.962 845.5,535.5 Z"/></g>
<g><path style="opacity:1" fill="#d9c7f9" d="M 649.5,601.5 C 649.5,588.833 649.5,576.167 649.5,563.5C 599.833,563.5 550.167,563.5 500.5,563.5C 500.5,576.167 500.5,588.833 500.5,601.5C 499.505,588.677 499.171,575.677 499.5,562.5C 549.833,562.5 600.167,562.5 650.5,562.5C 650.829,575.677 650.495,588.677 649.5,601.5 Z"/></g>
<g><path style="opacity:1" fill="#fefffe" d="M 649.5,601.5 C 599.833,601.5 550.167,601.5 500.5,601.5C 500.5,588.833 500.5,576.167 500.5,563.5C 550.167,563.5 599.833,563.5 649.5,563.5C 649.5,576.167 649.5,588.833 649.5,601.5 Z"/></g>
<g><path style="opacity:1" fill="#7c3aed" d="M 238.5,678.5 C 475.167,678.333 711.834,678.5 948.5,679C 958,681.833 964.167,688 967,697.5C 967.667,734.5 967.667,771.5 967,808.5C 963.612,819.224 956.445,825.724 945.5,828C 710.5,828.667 475.5,828.667 240.5,828C 229.23,825.063 222.397,817.897 220,806.5C 219.333,770.5 219.333,734.5 220,698.5C 222.587,688.417 228.753,681.75 238.5,678.5 Z"/></g>
<g><path style="opacity:1" fill="#fefefe" d="M 311.5,702.5 C 340.464,701.643 359.297,714.976 368,742.5C 371.628,774.767 357.794,794.934 326.5,803C 295.718,805.197 276.551,791.364 269,761.5C 267.013,730.124 281.18,710.458 311.5,702.5 Z"/></g>
<g><path style="opacity:1" fill="#fefefe" d="M 772.5,706.5 C 778.039,705.638 782.872,706.972 787,710.5C 787.667,738.833 787.667,767.167 787,795.5C 784.981,798.882 781.981,800.216 778,799.5C 774.019,800.216 771.019,798.882 769,795.5C 768.333,767.167 768.333,738.833 769,710.5C 770.376,709.295 771.542,707.962 772.5,706.5 Z"/></g>
<g><path style="opacity:1" fill="#fbf9fe" d="M 809.5,706.5 C 813.605,706.234 817.605,706.734 821.5,708C 822.701,708.903 823.535,710.069 824,711.5C 824.667,739.167 824.667,766.833 824,794.5C 822.063,798.386 818.897,800.053 814.5,799.5C 810.103,800.053 806.937,798.386 805,794.5C 804.333,767.167 804.333,739.833 805,712.5C 806.332,710.34 807.832,708.34 809.5,706.5 Z"/></g>
<g><path style="opacity:1" fill="#fbf9fe" d="M 846.5,706.5 C 852.476,705.224 857.309,706.89 861,711.5C 861.667,739.167 861.667,766.833 861,794.5C 859.063,798.386 855.897,800.053 851.5,799.5C 847.103,800.053 843.937,798.386 842,794.5C 841.333,766.833 841.333,739.167 842,711.5C 843.193,709.503 844.693,707.836 846.5,706.5 Z"/></g>
<g><path style="opacity:1" fill="#d9c7f9" d="M 500.5,734.5 C 500.5,747.167 500.5,759.833 500.5,772.5C 550.167,772.5 599.833,772.5 649.5,772.5C 649.5,759.833 649.5,747.167 649.5,734.5C 650.495,747.323 650.829,760.323 650.5,773.5C 600.167,773.5 549.833,773.5 499.5,773.5C 499.171,760.323 499.505,747.323 500.5,734.5 Z"/></g>
<g><path style="opacity:1" fill="#fefffe" d="M 500.5,734.5 C 550.167,734.5 599.833,734.5 649.5,734.5C 649.5,747.167 649.5,759.833 649.5,772.5C 599.833,772.5 550.167,772.5 500.5,772.5C 500.5,759.833 500.5,747.167 500.5,734.5 Z"/></g>
</svg>
