<?xml version="1.0" encoding="UTF-8"?>
<!DOCTYPE svg PUBLIC "-//W3C//DTD SVG 1.1//EN" "http://www.w3.org/Graphics/SVG/1.1/DTD/svg11.dtd">
<svg xmlns="http://www.w3.org/2000/svg" version="1.1" width="2645px" height="699px" style="shape-rendering:geometricPrecision; text-rendering:geometricPrecision; image-rendering:optimizeQuality; fill-rule:evenodd; clip-rule:evenodd" xmlns:xlink="http://www.w3.org/1999/xlink">
<g><path style="opacity:1" fill="#fefefe" d="M -0.5,-0.5 C 881.167,-0.5 1762.83,-0.5 2644.5,-0.5C 2644.5,232.5 2644.5,465.5 2644.5,698.5C 1762.83,698.5 881.167,698.5 -0.5,698.5C -0.5,465.5 -0.5,232.5 -0.5,-0.5 Z"/></g>
<g><path style="opacity:1" fill="#7d3ced" d="M 337.5,23.5 C 458.985,21.98 555.152,69.98 626,167.5C 686.478,261.457 698.811,361.457 663,467.5C 629.712,552.456 571.879,614.623 489.5,654C 385.845,697.846 284.845,692.512 186.5,638C 90.7704,578.488 36.9371,492.322 25,379.5C 18.4031,269.906 55.5697,178.406 136.5,105C 194.408,55.7225 261.408,28.5559 337.5,23.5 Z"/></g>
<g><path style="opacity:1" fill="#fefefe" d="M 332.5,44.5 C 452.664,40.8298 546.497,88.1631 614,186.5C 663.758,267.553 675.425,353.886 649,445.5C 616.948,540.885 554.115,607.052 460.5,644C 372.385,674.324 287.052,667.991 204.5,625C 112.337,571.586 59.5036,491.753 46,385.5C 37.3114,266.404 80.478,171.238 175.5,100C 222.779,67.0745 275.112,48.5745 332.5,44.5 Z"/></g>
<g><path style="opacity:1" fill="#020202" d="M 1151.5,89.5 C 1167.17,89.5 1182.83,89.5 1198.5,89.5C 1198.5,255.833 1198.5,422.167 1198.5,588.5C 1182.83,588.5 1167.17,588.5 1151.5,588.5C 1151.5,422.167 1151.5,255.833 1151.5,89.5 Z"/></g>
<g><path style="opacity:1" fill="#000000" d="M 1298.5,89.5 C 1313.83,89.5 1329.17,89.5 1344.5,89.5C 1344.5,255.833 1344.5,422.167 1344.5,588.5C 1329.17,588.5 1313.83,588.5 1298.5,588.5C 1298.5,422.167 1298.5,255.833 1298.5,89.5 Z"/></g>
<g><path style="opacity:1" fill="#7c3bed" d="M 2171.5,295.5 C 2196.99,296.498 2222.66,296.831 2248.5,296.5C 2248.5,310.5 2248.5,324.5 2248.5,338.5C 2222.66,338.169 2196.99,338.502 2171.5,339.5C 2171.5,422.5 2171.5,505.5 2171.5,588.5C 2155.83,588.5 2140.17,588.5 2124.5,588.5C 2124.5,505.5 2124.5,422.5 2124.5,339.5C 2104.83,339.5 2085.17,339.5 2065.5,339.5C 2065.5,324.833 2065.5,310.167 2065.5,295.5C 2085.17,295.5 2104.83,295.5 2124.5,295.5C 2124.33,253.165 2124.5,210.832 2125,168.5C 2125.96,141.536 2136.79,119.703 2157.5,103C 2170.7,95.0453 2185.03,90.712 2200.5,90C 2216.83,89.5001 2233.16,89.3334 2249.5,89.5C 2249.5,103.833 2249.5,118.167 2249.5,132.5C 2230.78,132.052 2212.11,132.552 2193.5,134C 2181.13,137.545 2173.97,145.711 2172,158.5C 2171.5,204.165 2171.33,249.832 2171.5,295.5 Z"/></g>
<g><path style="opacity:1" fill="#010101" d="M 1094.5,587.5 C 1078.01,588.497 1061.34,588.83 1044.5,588.5C 1028.22,547.605 1012.22,506.605 996.5,465.5C 929.833,465.333 863.166,465.5 796.5,466C 780.074,506.683 764.074,547.516 748.5,588.5C 731.497,588.667 714.497,588.5 697.5,588C 763.734,427.134 830.067,266.3 896.5,105.5C 962.694,266.081 1028.69,426.748 1094.5,587.5 Z"/></g>
<g><path style="opacity:1" fill="#7c3aed" d="M 143.5,208.5 C 283.5,208.333 423.5,208.5 563.5,209C 568.333,211.167 571.833,214.667 574,219.5C 574.667,241.5 574.667,263.5 574,285.5C 572.376,290.944 568.876,294.444 563.5,296C 423.167,296.667 282.833,296.667 142.5,296C 138.183,293.685 135.35,290.185 134,285.5C 133.333,262.833 133.333,240.167 134,217.5C 136.406,213.592 139.572,210.592 143.5,208.5 Z"/></g>
<g><path style="opacity:1" fill="#fdfdfd" d="M 977.5,420.5 C 950.669,421.167 923.669,421.5 896.5,421.5C 869.158,421.5 842.158,420.833 815.5,419.5C 842.209,351.078 869.209,282.744 896.5,214.5C 924.049,282.934 951.049,351.601 977.5,420.5 Z"/></g>
<g><path style="opacity:1" fill="#fdfcfe" d="M 185.5,222.5 C 204.007,221.338 215.841,229.672 221,247.5C 222.238,265.194 214.404,276.694 197.5,282C 173.06,282.894 161.227,271.06 162,246.5C 164.065,238.857 168.232,232.69 174.5,228C 178.017,225.674 181.683,223.84 185.5,222.5 Z"/></g>
<g><path style="opacity:1" fill="#faf7fe" d="M 458.5,225.5 C 462.007,224.994 465.174,225.66 468,227.5C 468.667,244.167 468.667,260.833 468,277.5C 464.333,280.167 460.667,280.167 457,277.5C 456.333,260.833 456.333,244.167 457,227.5C 457.717,226.956 458.217,226.289 458.5,225.5 Z"/></g>
<g><path style="opacity:1" fill="#fefefe" d="M 479.5,225.5 C 482.777,225.216 485.943,225.549 489,226.5C 489.825,244.074 489.658,261.574 488.5,279C 487,279.167 485.5,279.333 484,279.5C 482.019,279.371 480.353,278.704 479,277.5C 478.195,260.123 478.361,242.789 479.5,225.5 Z"/></g>
<g><path style="opacity:1" fill="#faf7fe" d="M 501.5,225.5 C 505.007,224.994 508.174,225.66 511,227.5C 511.667,244.167 511.667,260.833 511,277.5C 507.333,280.167 503.667,280.167 500,277.5C 499.333,261.167 499.333,244.833 500,228.5C 500.513,227.473 501.013,226.473 501.5,225.5 Z"/></g>
<g><path style="opacity:1" fill="#fefdfe" d="M 298.5,241.5 C 328.167,241.5 357.833,241.5 387.5,241.5C 387.5,249.167 387.5,256.833 387.5,264.5C 357.833,264.5 328.167,264.5 298.5,264.5C 298.5,256.833 298.5,249.167 298.5,241.5 Z"/></g>
<g><path style="opacity:1" fill="#7c3aed" d="M 2604.5,425.5 C 2604.5,436.833 2604.5,448.167 2604.5,459.5C 2518.83,459.5 2433.17,459.5 2347.5,459.5C 2347.26,460.791 2347.6,461.791 2348.5,462.5C 2352.55,485.092 2363.21,503.925 2380.5,519C 2417.34,549.72 2457.67,555.053 2501.5,535C 2515.82,526.849 2528.15,516.349 2538.5,503.5C 2556.15,502.5 2573.82,502.167 2591.5,502.5C 2575.83,538.335 2550.17,564.502 2514.5,581C 2479.62,595.46 2443.95,597.46 2407.5,587C 2370.16,574.983 2340.99,552.483 2320,519.5C 2301.7,486.406 2295.36,451.073 2301,413.5C 2310.26,368.256 2334.42,333.422 2373.5,309C 2425.86,280.406 2478.19,280.406 2530.5,309C 2568.14,332.313 2592.31,365.48 2603,408.5C 2604.03,414.123 2604.53,419.79 2604.5,425.5 Z"/></g>
<g><path style="opacity:1" fill="#7c3bed" d="M 1413.5,508.5 C 1429.66,507.504 1445.99,507.17 1462.5,507.5C 1471.14,543.674 1494.14,560.674 1531.5,558.5C 1549.69,559.976 1566.36,555.81 1581.5,546C 1593.31,534.277 1597.81,520.11 1595,503.5C 1590.36,491.862 1582.53,483.029 1571.5,477C 1550.87,468.173 1529.53,461.507 1507.5,457C 1487.77,451.87 1469.11,444.204 1451.5,434C 1427.3,416.734 1417.46,393.234 1422,363.5C 1428.04,331.589 1446.21,309.755 1476.5,298C 1498.12,289.921 1520.45,287.254 1543.5,290C 1569.42,291.74 1591.92,301.24 1611,318.5C 1623.1,333.037 1630.6,349.703 1633.5,368.5C 1616.83,368.5 1600.17,368.5 1583.5,368.5C 1576.92,344.098 1560.92,330.598 1535.5,328C 1515.13,325.009 1496.8,329.676 1480.5,342C 1468.03,357.466 1467.2,373.633 1478,390.5C 1489.29,400.065 1502.13,406.899 1516.5,411C 1536.04,416.801 1555.7,422.134 1575.5,427C 1633.72,442.896 1655.22,480.063 1640,538.5C 1630.77,561.396 1614.6,577.23 1591.5,586C 1550.15,601.293 1508.82,601.293 1467.5,586C 1436.07,569.688 1418.07,543.855 1413.5,508.5 Z"/></g>
<g><path style="opacity:1" fill="#7c3aed" d="M 1945.5,296.5 C 1960.83,296.5 1976.17,296.5 1991.5,296.5C 1991.5,393.833 1991.5,491.167 1991.5,588.5C 1976.17,588.5 1960.83,588.5 1945.5,588.5C 1945.67,572.163 1945.5,555.83 1945,539.5C 1904.7,589.044 1853.53,605.544 1791.5,589C 1740.94,568.412 1709.11,531.579 1696,478.5C 1683.73,414.979 1701.56,361.812 1749.5,319C 1791.36,287.39 1837.02,280.723 1886.5,299C 1909.89,309.611 1929.39,325.111 1945,345.5C 1945.5,329.17 1945.67,312.837 1945.5,296.5 Z"/></g>
<g><path style="opacity:1" fill="#a77af2" d="M 2171.5,295.5 C 2197.5,295.5 2223.5,295.5 2249.5,295.5C 2249.5,310.167 2249.5,324.833 2249.5,339.5C 2223.5,339.5 2197.5,339.5 2171.5,339.5C 2196.99,338.502 2222.66,338.169 2248.5,338.5C 2248.5,324.5 2248.5,310.5 2248.5,296.5C 2222.66,296.831 2196.99,296.498 2171.5,295.5 Z"/></g>
<g><path style="opacity:1" fill="#a273f1" d="M 1945.5,296.5 C 1960.99,295.504 1976.66,295.17 1992.5,295.5C 1992.83,393.335 1992.5,491.001 1991.5,588.5C 1991.5,491.167 1991.5,393.833 1991.5,296.5C 1976.17,296.5 1960.83,296.5 1945.5,296.5 Z"/></g>
<g><path style="opacity:1" fill="#7d3bed" d="M 144.5,309.5 C 283.834,309.333 423.167,309.5 562.5,310C 568.333,311.833 572.167,315.667 574,321.5C 574.667,343.167 574.667,364.833 574,386.5C 572.167,392.333 568.333,396.167 562.5,398C 423.167,398.667 283.833,398.667 144.5,398C 139.056,396.376 135.556,392.876 134,387.5C 133.333,364.833 133.333,342.167 134,319.5C 136.106,314.557 139.606,311.224 144.5,309.5 Z"/></g>
<g><path style="opacity:1" fill="#fdfdfe" d="M 184.5,324.5 C 203.585,322.119 215.752,330.119 221,348.5C 221.164,373.001 208.998,384.501 184.5,383C 167.68,377.163 160.18,365.329 162,347.5C 165.719,335.949 173.219,328.283 184.5,324.5 Z"/></g>
<g><path style="opacity:1" fill="#f9f6fe" d="M 458.5,326.5 C 461.187,326.336 463.854,326.503 466.5,327C 467.126,327.75 467.626,328.584 468,329.5C 468.667,345.833 468.667,362.167 468,378.5C 464.333,382.5 460.667,382.5 457,378.5C 456.333,361.833 456.333,345.167 457,328.5C 457.717,327.956 458.217,327.289 458.5,326.5 Z"/></g>
<g><path style="opacity:1" fill="#fefdfe" d="M 480.5,326.5 C 483.685,326.02 486.519,326.686 489,328.5C 489.667,345.5 489.667,362.5 489,379.5C 485.667,382.167 482.333,382.167 479,379.5C 478.333,362.5 478.333,345.5 479,328.5C 479.717,327.956 480.217,327.289 480.5,326.5 Z"/></g>
<g><path style="opacity:1" fill="#f9f6fe" d="M 501.5,326.5 C 505.007,325.994 508.174,326.66 511,328.5C 511.667,345.167 511.667,361.833 511,378.5C 507.38,382.487 503.713,382.487 500,378.5C 499.333,362.167 499.333,345.833 500,329.5C 500.513,328.473 501.013,327.473 501.5,326.5 Z"/></g>
<g><path style="opacity:1" fill="#fefefe" d="M 2555.5,419.5 C 2486.83,419.5 2418.17,419.5 2349.5,419.5C 2349.5,418.5 2349.5,417.5 2349.5,416.5C 2359.6,379.232 2382.6,353.399 2418.5,339C 2472.2,325.893 2514.04,342.393 2544,388.5C 2549.52,398.241 2553.36,408.575 2555.5,419.5 Z"/></g>
<g><path style="opacity:1" fill="#fefefe" d="M 1830.5,335.5 C 1875.16,333.41 1908.99,351.41 1932,389.5C 1948.47,421.523 1949.81,454.189 1936,487.5C 1906.9,540.765 1863.07,558.932 1804.5,542C 1751.81,515.443 1730.97,472.943 1742,414.5C 1755.71,370.265 1785.21,343.932 1830.5,335.5 Z"/></g>
<g><path style="opacity:1" fill="#fefdfe" d="M 298.5,342.5 C 328.167,342.5 357.833,342.5 387.5,342.5C 387.5,350.167 387.5,357.833 387.5,365.5C 357.833,365.5 328.167,365.5 298.5,365.5C 298.5,357.833 298.5,350.167 298.5,342.5 Z"/></g>
<g><path style="opacity:1" fill="#7d3bed" d="M 144.5,410.5 C 283.834,410.333 423.167,410.5 562.5,411C 568.36,412.859 572.193,416.693 574,422.5C 574.667,444.167 574.667,465.833 574,487.5C 572.167,493.333 568.333,497.167 562.5,499C 423.167,499.667 283.833,499.667 144.5,499C 139,497.5 135.5,494 134,488.5C 133.333,465.833 133.333,443.167 134,420.5C 136.354,415.916 139.854,412.583 144.5,410.5 Z"/></g>
<g><path style="opacity:1" fill="#ddcdf9" d="M 2349.5,416.5 C 2349.5,417.5 2349.5,418.5 2349.5,419.5C 2418.17,419.5 2486.83,419.5 2555.5,419.5C 2486.67,420.499 2417.67,420.833 2348.5,420.5C 2348.23,418.901 2348.57,417.568 2349.5,416.5 Z"/></g>
<g><path style="opacity:1" fill="#bebebe" d="M 815.5,419.5 C 842.158,420.833 869.158,421.5 896.5,421.5C 923.669,421.5 950.669,421.167 977.5,420.5C 978.043,420.56 978.376,420.893 978.5,421.5C 923.837,422.5 869.171,422.833 814.5,422.5C 814.263,421.209 814.596,420.209 815.5,419.5 Z"/></g>
<g><path style="opacity:1" fill="#fdfcfe" d="M 183.5,425.5 C 205.696,423.207 218.363,433.04 221.5,455C 217.581,478.467 203.915,487.8 180.5,483C 165.093,475.018 159.26,462.518 163,445.5C 167.106,435.893 173.939,429.226 183.5,425.5 Z"/></g>
<g><path style="opacity:1" fill="#f9f6fe" d="M 458.5,427.5 C 460.857,427.337 463.19,427.503 465.5,428C 466.667,428.5 467.5,429.333 468,430.5C 468.667,446.833 468.667,463.167 468,479.5C 466.704,481.815 464.704,482.815 462,482.5C 459.425,482.91 457.758,481.91 457,479.5C 456.333,463.167 456.333,446.833 457,430.5C 457.513,429.473 458.013,428.473 458.5,427.5 Z"/></g>
<g><path style="opacity:1" fill="#fefefe" d="M 480.5,427.5 C 483.685,427.02 486.519,427.686 489,429.5C 489.667,446.5 489.667,463.5 489,480.5C 485.667,483.167 482.333,483.167 479,480.5C 478.333,463.5 478.333,446.5 479,429.5C 479.717,428.956 480.217,428.289 480.5,427.5 Z"/></g>
<g><path style="opacity:1" fill="#faf6fe" d="M 502.5,427.5 C 505.685,427.02 508.519,427.686 511,429.5C 511.667,446.5 511.667,463.5 511,480.5C 507.057,483.366 503.39,483.032 500,479.5C 499.333,463.167 499.333,446.833 500,430.5C 501.045,429.627 501.878,428.627 502.5,427.5 Z"/></g>
<g><path style="opacity:1" fill="#d8c6f9" d="M 298.5,444.5 C 327.995,443.502 357.662,443.169 387.5,443.5C 387.825,451.352 387.492,459.018 386.5,466.5C 386.5,459.167 386.5,451.833 386.5,444.5C 357.167,444.5 327.833,444.5 298.5,444.5 Z"/></g>
<g><path style="opacity:1" fill="#fefffe" d="M 298.5,444.5 C 327.833,444.5 357.167,444.5 386.5,444.5C 386.5,451.833 386.5,459.167 386.5,466.5C 357.167,466.5 327.833,466.5 298.5,466.5C 298.5,459.167 298.5,451.833 298.5,444.5 Z"/></g>
<g><path style="opacity:1" fill="#9a69f0" d="M 2604.5,425.5 C 2605.49,436.988 2605.83,448.655 2605.5,460.5C 2519.49,459.836 2433.83,460.503 2348.5,462.5C 2347.6,461.791 2347.26,460.791 2347.5,459.5C 2433.17,459.5 2518.83,459.5 2604.5,459.5C 2604.5,448.167 2604.5,436.833 2604.5,425.5 Z"/></g>
<g><path style="opacity:1" fill="#9e6ef1" d="M 1462.5,507.5 C 1445.99,507.17 1429.66,507.504 1413.5,508.5C 1412.96,508.44 1412.62,508.107 1412.5,507.5C 1429.33,506.173 1446,506.173 1462.5,507.5 Z"/></g>
<g><path style="opacity:1" fill="#c0c0c0" d="M 1094.5,587.5 C 1095.04,587.56 1095.38,587.893 1095.5,588.5C 1078.34,589.827 1061.34,589.827 1044.5,588.5C 1061.34,588.83 1078.01,588.497 1094.5,587.5 Z"/></g>
</svg>
