<?xml version="1.0" encoding="UTF-8"?>
<svg version="1.1" xmlns="http://www.w3.org/2000/svg" width="346" height="91">
<path d="M0 0 C114.18 0 228.36 0 346 0 C346 30.03 346 60.06 346 91 C231.82 91 117.64 91 0 91 C0 60.97 0 30.94 0 0 Z " fill="#FCFDFD" transform="translate(0,0)"/>
<path d="M0 0 C1.0725 0.639375 2.145 1.27875 3.25 1.9375 C4.61125 2.9584375 4.61125 2.9584375 6 4 C6.969375 4.680625 7.93875 5.36125 8.9375 6.0625 C16.05564826 12.1476716 20.28617491 20.92686148 21.21679688 30.14819336 C21.89162377 42.51771496 20.81076128 53.24947066 12.68359375 63.16015625 C5.43861504 71.07752278 -3.8014239 77.48317915 -14.80859375 78.2734375 C-27.88215499 78.68123144 -37.74917976 76.50554808 -48.03515625 67.875 C-56.19945607 60.08401807 -60.98146452 49.82786935 -61.29272461 38.51782227 C-61.42225898 24.89112661 -57.50646473 16.04148274 -48.19140625 6.0625 C-36.0709328 -5.62959913 -14.75562614 -8.83515886 0 0 Z " fill="#F8FAFD" transform="translate(70,8)"/>
<path d="M0 0 C2.89291349 1.39591499 5.4491296 3.05383185 8 5 C8.33 3.68 8.66 2.36 9 1 C10.98 1 12.96 1 15 1 C15 13.21 15 25.42 15 38 C13.02 38 11.04 38 9 38 C8.67 36.68 8.34 35.36 8 34 C7.29037109 34.54140625 7.29037109 34.54140625 6.56640625 35.09375 C2.08884702 38.23589682 -1.31036721 39.76435652 -6.828125 39.421875 C-11.6530412 38.48466106 -14.92783798 36.13011672 -18.3125 32.5625 C-22.42886659 26.3117211 -22.90503687 20.335562 -22 13 C-20.03479229 7.4242944 -16.29966056 3.68533873 -11.171875 0.8515625 C-7.34784579 -0.64778708 -4.00742092 -0.90288513 0 0 Z " fill="#0C52B0" transform="translate(242,35)"/>
<path d="M0 0 C0.66 0 1.32 0 2 0 C2.22693039 0.54964417 2.45386078 1.09928833 2.68766785 1.66558838 C5.07255263 7.44186819 7.45770979 13.21803548 9.84301758 18.99414062 C10.73045573 21.14320094 11.6178269 23.29228891 12.50512695 25.44140625 C13.36716128 27.52930481 14.22931183 29.6171554 15.09158325 31.70495605 C15.92913023 33.73318885 16.76627308 35.76158858 17.60299683 37.79016113 C19.2979654 41.89660674 20.99451447 46.00186168 22.72900391 50.09179688 C23.18581543 51.17009766 23.64262695 52.24839844 24.11328125 53.359375 C24.48880127 54.23561523 24.86432129 55.11185547 25.2512207 56.01464844 C26 58 26 58 26 60 C23.69 60 21.38 60 19 60 C18.1605118 57.89828133 17.32860344 55.79353375 16.5 53.6875 C16.0359375 52.51574219 15.571875 51.34398437 15.09375 50.13671875 C14 47 14 47 14 44 C5.42 44 -3.16 44 -12 44 C-12.99 47.3 -13.98 50.6 -15 54 C-15.94368683 56.02717912 -16.91844497 58.04290043 -18 60 C-19.98 60 -21.96 60 -24 60 C-22.04374441 53.88902853 -19.83971725 47.93783633 -17.3828125 42.01171875 C-17.04377899 41.18726761 -16.70474548 40.36281647 -16.35543823 39.51338196 C-15.28142534 36.90359079 -14.20326873 34.29553525 -13.125 31.6875 C-12.40988675 29.95128285 -11.69504097 28.21495552 -10.98046875 26.47851562 C-7.34220349 17.64322391 -3.68570104 8.81561786 0 0 Z " fill="#0A0A0A" transform="translate(118,13)"/>
<path d="M0 0 C5.04663371 2.82611488 8.97669864 6.93009592 10.8125 12.4375 C10.8125 15.0775 10.8125 17.7175 10.8125 20.4375 C0.2525 20.4375 -10.3075 20.4375 -21.1875 20.4375 C-18.63551032 26.1958436 -18.63551032 26.1958436 -14.1875 29.4375 C-10.48066932 30.0507015 -6.90476375 29.96536256 -3.1875 29.4375 C-0.45530807 27.51890833 -0.45530807 27.51890833 1.8125 25.4375 C5.625 25.1875 5.625 25.1875 8.8125 25.4375 C7.24307006 30.57381615 4.52459136 32.76344361 0.046875 35.52734375 C-4.73331029 37.47451713 -10.13537958 36.94145216 -15.1875 36.4375 C-21.11804288 33.68403366 -25.62485114 28.46993006 -28.1875 22.4375 C-29.07585514 16.94209381 -28.30476566 12.14832556 -25.59765625 7.296875 C-19.39636357 -0.87989872 -9.55157234 -4.29820756 0 0 Z " fill="#0C52B1" transform="translate(324.1875,36.5625)"/>
<path d="M0 0 C1.58669495 -0.00472824 1.58669495 -0.00472824 3.20544434 -0.009552 C4.93196228 -0.00651566 4.93196228 -0.00651566 6.69335938 -0.00341797 C8.45226501 -0.00485306 8.45226501 -0.00485306 10.2467041 -0.00631714 C12.73169 -0.00699917 15.21667766 -0.00514331 17.70166016 -0.00097656 C21.52054825 0.00437134 25.33931872 -0.00092083 29.15820312 -0.00732422 C31.56575547 -0.00666344 33.97330774 -0.00538229 36.38085938 -0.00341797 C38.10737732 -0.00645432 38.10737732 -0.00645432 39.86877441 -0.009552 C40.92657104 -0.00639984 41.98436768 -0.00324768 43.07421875 0 C44.47867249 0.00119339 44.47867249 0.00119339 45.91149902 0.00241089 C48.03710938 0.12939453 48.03710938 0.12939453 49.03710938 1.12939453 C49.10937439 2.98226955 49.12092157 4.83773331 49.09960938 6.69189453 C49.09058594 7.70380859 49.0815625 8.71572266 49.07226562 9.75830078 C49.06066406 10.54076172 49.0490625 11.32322266 49.03710938 12.12939453 C41.36499735 12.15466058 33.69289598 12.17222576 26.02075195 12.18432617 C23.40844319 12.1893683 20.79613726 12.19620178 18.18383789 12.20483398 C14.43830669 12.21690489 10.69281266 12.22262389 6.94726562 12.22705078 C5.77124283 12.23221207 4.59522003 12.23737335 3.38356018 12.24269104 C2.30251511 12.24276657 1.22147003 12.2428421 0.10766602 12.24291992 C-0.84941757 12.24514053 -1.80650116 12.24736115 -2.79258728 12.24964905 C-4.96289062 12.12939453 -4.96289062 12.12939453 -5.96289062 11.12939453 C-6.06113 9.46510402 -6.09262693 7.79657522 -6.08789062 6.12939453 C-6.09046875 5.22189453 -6.09304687 4.31439453 -6.09570312 3.37939453 C-5.84834376 -0.81116413 -3.67914055 0.00312623 0 0 Z " fill="#2362B8" transform="translate(28.962890625,38.87060546875)"/>
<path d="M0 0 C1.0725 0.639375 2.145 1.27875 3.25 1.9375 C4.61125 2.9584375 4.61125 2.9584375 6 4 C6.969375 4.680625 7.93875 5.36125 8.9375 6.0625 C16.05564826 12.1476716 20.28617491 20.92686148 21.21679688 30.14819336 C21.89162377 42.51771496 20.81076128 53.24947066 12.68359375 63.16015625 C5.43861504 71.07752278 -3.8014239 77.48317915 -14.80859375 78.2734375 C-27.88215499 78.68123144 -37.74917976 76.50554808 -48.03515625 67.875 C-56.19945607 60.08401807 -60.98146452 49.82786935 -61.29272461 38.51782227 C-61.42225898 24.89112661 -57.50646473 16.04148274 -48.19140625 6.0625 C-36.0709328 -5.62959913 -14.75562614 -8.83515886 0 0 Z M-50.43359375 12.015625 C-57.46778052 20.92676434 -60.30155496 31.80931094 -59 43 C-55.82583671 54.79753393 -49.63594252 65.01282286 -38.8828125 71.22265625 C-28.7955436 76.37713981 -15.80931554 77.00393801 -4.9375 73.5625 C3.23905882 69.99639958 11.36269993 62.50902681 15.23046875 54.4296875 C15.54628906 53.58664063 15.86210938 52.74359375 16.1875 51.875 C16.51105469 51.02679688 16.83460937 50.17859375 17.16796875 49.3046875 C20.25036894 40.76658368 20.01759128 30.6101938 17 22 C11.0878187 10.1756374 2.90355683 3.56142273 -9.125 -1.25 C-25.58905946 -4.43659215 -38.93301111 -0.04531085 -50.43359375 12.015625 Z " fill="#1558B3" transform="translate(70,8)"/>
<path d="M0 0 C18.15 0 36.3 0 55 0 C55 3.63 55 7.26 55 11 C36.85 11 18.7 11 0 11 C0 7.37 0 3.74 0 0 Z " fill="#2362B8" transform="translate(23,52)"/>
<path d="M0 0 C18.15 0 36.3 0 55 0 C55 3.63 55 7.26 55 11 C36.85 11 18.7 11 0 11 C0 7.37 0 3.74 0 0 Z " fill="#0E54B1" transform="translate(23,27)"/>
<path d="M0 0 C3.28231239 2.68552832 5.44614469 4.57373155 6.21875 8.8359375 C6.31353591 17.29558011 6.31353591 17.29558011 3.5 20.8125 C-0.15007574 24.0477944 -1.771137 25.08568189 -6.625 25.625 C-11.6231134 25.10795379 -14.53847197 23.13268084 -17.890625 19.4453125 C-20.41175649 15.37383003 -19.97046836 10.85966333 -19.25 6.25 C-17.63154438 2.99382142 -15.30226615 1.02166184 -12.375 -1.125 C-7.67328643 -2.50785693 -4.31928681 -2.32576982 0 0 Z " fill="#FAFCFD" transform="translate(245.25,42.75)"/>
<path d="M0 0 C3.68998303 1.4445891 6.15005578 2.94238441 8.0234375 6.46875 C8.0234375 7.45875 8.0234375 8.44875 8.0234375 9.46875 C5.1484375 9.65625 5.1484375 9.65625 2.0234375 9.46875 C1.3634375 8.47875 0.7034375 7.48875 0.0234375 6.46875 C-2.10032954 5.85050283 -2.10032954 5.85050283 -4.4765625 5.71875 C-5.270625 5.64140625 -6.0646875 5.5640625 -6.8828125 5.484375 C-9.03710361 5.30990564 -9.03710361 5.30990564 -10.9765625 6.46875 C-10.9765625 8.44875 -10.9765625 10.42875 -10.9765625 12.46875 C-10.2753125 12.71109375 -9.5740625 12.9534375 -8.8515625 13.203125 C7.23135829 18.88459158 7.23135829 18.88459158 9.0234375 22.46875 C10.19741476 30.86491646 10.19741476 30.86491646 7.75390625 34.203125 C2.51569516 38.53643831 -1.39872504 38.80519128 -7.984375 38.7578125 C-12.18180979 38.35231619 -13.90209351 37.30049776 -16.9765625 34.46875 C-18.9765625 31.46875 -18.9765625 31.46875 -18.9765625 27.46875 C-16.9965625 27.46875 -15.0165625 27.46875 -12.9765625 27.46875 C-12.6878125 28.108125 -12.3990625 28.7475 -12.1015625 29.40625 C-11.14832799 31.62081079 -11.14832799 31.62081079 -8.9765625 32.46875 C-7.10276645 32.53908769 -5.22655148 32.5530522 -3.3515625 32.53125 C-2.34867188 32.52222656 -1.34578125 32.51320312 -0.3125 32.50390625 C0.45835937 32.49230469 1.22921875 32.48070312 2.0234375 32.46875 C2.0234375 30.15875 2.0234375 27.84875 2.0234375 25.46875 C-2.65907205 22.93766376 -7.41810004 21.24883967 -12.48828125 19.62890625 C-15.36262951 18.28874701 -16.43545519 17.22072734 -17.9765625 14.46875 C-18.69173838 11.36965452 -18.6790539 8.57188129 -17.9765625 5.46875 C-13.44727349 -0.41794061 -6.9686496 -1.87299673 0 0 Z " fill="#0B51B0" transform="translate(203.9765625,35.53125)"/>
<path d="M0 0 C0.90105469 0.01804687 1.80210937 0.03609375 2.73046875 0.0546875 C3.41753906 0.07789063 4.10460937 0.10109375 4.8125 0.125 C4.8125 1.775 4.8125 3.425 4.8125 5.125 C1.73632812 5.41796875 1.73632812 5.41796875 -1.33984375 5.7109375 C-1.94957031 5.84757813 -2.55929687 5.98421875 -3.1875 6.125 C-4.30573815 8.36147631 -4.38146061 9.77391529 -4.50390625 12.2578125 C-4.54580078 13.06347656 -4.58769531 13.86914062 -4.63085938 14.69921875 C-4.68983398 15.96185547 -4.68983398 15.96185547 -4.75 17.25 C-4.79318359 18.09949219 -4.83636719 18.94898437 -4.88085938 19.82421875 C-4.98704236 21.92428223 -5.08778497 24.02461948 -5.1875 26.125 C-1.8875 26.125 1.4125 26.125 4.8125 26.125 C4.8125 27.775 4.8125 29.425 4.8125 31.125 C1.5125 31.125 -1.7875 31.125 -5.1875 31.125 C-5.1875 41.685 -5.1875 52.245 -5.1875 63.125 C-7.1675 63.125 -9.1475 63.125 -11.1875 63.125 C-11.1875 52.895 -11.1875 42.665 -11.1875 32.125 C-13.4975 32.125 -15.8075 32.125 -18.1875 32.125 C-18.1875 30.145 -18.1875 28.165 -18.1875 26.125 C-15.8775 26.125 -13.5675 26.125 -11.1875 26.125 C-11.22230469 24.81144531 -11.25710938 23.49789062 -11.29296875 22.14453125 C-11.32111466 20.40886699 -11.34841396 18.67318885 -11.375 16.9375 C-11.40013672 16.07318359 -11.42527344 15.20886719 -11.45117188 14.31835938 C-11.50730871 9.43445456 -11.45320457 6.04536796 -8.1875 2.125 C-4.87379 -0.08414 -3.8428979 -0.09981553 0 0 Z " fill="#0850AF" transform="translate(285.1875,9.875)"/>
<path d="M0 0 C1.98 0 3.96 0 6 0 C6 20.79 6 41.58 6 63 C4.02 63 2.04 63 0 63 C0 42.21 0 21.42 0 0 Z " fill="#0D0D0D" transform="translate(170,10)"/>
<path d="M0 0 C1.98 0 3.96 0 6 0 C6 20.79 6 41.58 6 63 C4.02 63 2.04 63 0 63 C0 42.21 0 21.42 0 0 Z " fill="#0E0E0E" transform="translate(151,10)"/>
<path d="M0 0 C0 0.66 0 1.32 0 2 C-0.81791016 2.22042969 -0.81791016 2.22042969 -1.65234375 2.4453125 C-11.82306644 5.47045053 -19.95067737 11.19974106 -26 20 C-27.66243093 23.58912112 -28.89896762 27.20548164 -30 31 C-30.33 31.99 -30.66 32.98 -31 34 C-32.20310605 44.82795447 -29.40094764 54.50034928 -23.1875 63.4375 C-17.04117602 70.88521401 -8.73932899 76.31701985 0.90625 77.46484375 C4.60069335 77.75144036 8.29568783 77.90238967 12 78 C12 78.33 12 78.66 12 79 C9.03 79 6.06 79 3 79 C3 79.66 3 80.32 3 81 C-6.48740244 80.63509991 -15.57744581 76.17570796 -22.48046875 69.67578125 C-31.50309992 59.7253731 -34.97771718 48.13113694 -34.37890625 34.8359375 C-33.17005578 22.59788429 -26.59103428 13.35826014 -17.3203125 5.578125 C-12.46807255 2.27794834 -5.82477903 -1.94159301 0 0 Z " fill="#1E5FB6" transform="translate(43,5)"/>
<path d="M0 0 C0.66 0 1.32 0 2 0 C3.50548369 3.78951244 5.00345314 7.58195031 6.5 11.375 C7.14388672 12.99535156 7.14388672 12.99535156 7.80078125 14.6484375 C8.40986328 16.1953125 8.40986328 16.1953125 9.03125 17.7734375 C9.40830078 18.72653809 9.78535156 19.67963867 10.17382812 20.66162109 C11 23 11 23 11 25 C4.4 25 -2.2 25 -9 25 C-8.26268982 21.31344912 -7.53481038 18.53802554 -6.15234375 15.13671875 C-5.61577148 13.80737305 -5.61577148 13.80737305 -5.06835938 12.45117188 C-4.50858398 11.0831543 -4.50858398 11.0831543 -3.9375 9.6875 C-3.56044922 8.75615234 -3.18339844 7.82480469 -2.79492188 6.86523438 C-1.86716875 4.57521083 -0.93541999 2.28690004 0 0 Z " fill="#F6F6F6" transform="translate(118,27)"/>
<path d="M0 0 C3.82192235 1.44180304 6.48058543 3.29627703 8.9375 6.625 C10 9 10 9 10 11 C1.42 11 -7.16 11 -16 11 C-14.90596582 5.52982909 -14.1397533 4.43038758 -10.02734375 1.17578125 C-6.62527464 -0.79728773 -3.78656203 -0.87038852 0 0 Z " fill="#F0F4FA" transform="translate(319,41)"/>
<path d="M0 0 C2 3 2 3 3.2265625 5.234375 C8.81351171 15.28464118 16.10077688 21.36692563 27 25 C29.56634861 25.22718496 32.11678107 25.41608184 34.6875 25.5625 C35.38939453 25.60568359 36.09128906 25.64886719 36.81445312 25.69335938 C38.54275206 25.7991736 40.2713511 25.90006581 42 26 C42 26.33 42 26.66 42 27 C39.03 27 36.06 27 33 27 C33 27.66 33 28.32 33 29 C23.50241773 28.63470837 14.47121244 24.16681551 7.53125 17.703125 C3.37190877 13.07691893 -0.26574071 8.30414051 -1 2 C-0.67 1.34 -0.34 0.68 0 0 Z " fill="#1B5DB5" transform="translate(13,57)"/>
<path d="M0 0 C3.3 0 6.6 0 10 0 C10 3.3 10 6.6 10 10 C5.38 10 0.76 10 -4 10 C-3.34 9.34 -2.68 8.68 -2 8 C-1.34 8.33 -0.68 8.66 0 9 C0 6.03 0 3.06 0 0 Z " fill="#185BB4" transform="translate(68,40)"/>
<path d="M0 0 C17.49 0 34.98 0 53 0 C53 0.33 53 0.66 53 1 C50.03 1 47.06 1 44 1 C44 3.97 44 6.94 44 10 C42.68 9.67 41.36 9.34 40 9 C39.875 3.25 39.875 3.25 41 1 C27.47 1 13.94 1 0 1 C0 0.67 0 0.34 0 0 Z " fill="#81A5D6" transform="translate(24,39)"/>
<path d="M0 0 C2.31 0 4.62 0 7 0 C7 3.3 7 6.6 7 10 C3.7 10 0.4 10 -3 10 C-2.01 9.67 -1.02 9.34 0 9 C0 6.03 0 3.06 0 0 Z " fill="#004AAD" transform="translate(71,53)"/>
<path d="M0 0 C2.31 0 4.62 0 7 0 C7 3.3 7 6.6 7 10 C3.7 10 0.4 10 -3 10 C-2.01 9.67 -1.02 9.34 0 9 C0 6.03 0 3.06 0 0 Z " fill="#004AAD" transform="translate(71,27)"/>
<path d="M0 0 C0.99 0.33 1.98 0.66 3 1 C-1.60378383 6.26808821 -8.87183779 8.72769713 -15.6796875 9.3203125 C-18.80232096 9.3134796 -21.88607832 9.22601044 -25 9 C-25 8.34 -25 7.68 -25 7 C-23.78376953 6.85304688 -23.78376953 6.85304688 -22.54296875 6.703125 C-10.45758277 5.45118106 -10.45758277 5.45118106 0 0 Z " fill="#0C52B0" transform="translate(71,77)"/>
<path d="M0 0 C1.98 0 3.96 0 6 0 C6 2.97 6 5.94 6 9 C3.69 9 1.38 9 -1 9 C-1.125 2.25 -1.125 2.25 0 0 Z " fill="#749CD2" transform="translate(65,27)"/>
<path d="M0 0 C0.33 0 0.66 0 1 0 C0.98839844 1.2065625 0.97679687 2.413125 0.96484375 3.65625 C0.95545665 5.27083177 0.94635744 6.88541524 0.9375 8.5 C0.92912109 9.29148437 0.92074219 10.08296875 0.91210938 10.8984375 C0.89108815 16.02761717 1.26062713 20.92336106 2 26 C1.34 26 0.68 26 0 26 C-1.72417958 20.77272539 -2.311437 16.23837223 -2.25 10.75 C-2.25773438 10.04359375 -2.26546875 9.3371875 -2.2734375 8.609375 C-2.25925262 4.86456627 -2.12723104 3.19084656 0 0 Z " fill="#0B52B0" transform="translate(11,33)"/>
<path d="M0 0 C2.625 0.375 2.625 0.375 5 1 C5.625 3.375 5.625 3.375 6 6 C5.34 6.66 4.68 7.32 4 8 C1.375 7.625 1.375 7.625 -1 7 C-1.625 4.625 -1.625 4.625 -2 2 C-1.34 1.34 -0.68 0.68 0 0 Z " fill="#DFE8F4" transform="translate(28,54)"/>
<path d="M0 0 C2.625 0.375 2.625 0.375 5 1 C5.625 3.375 5.625 3.375 6 6 C5.34 6.66 4.68 7.32 4 8 C1.375 7.625 1.375 7.625 -1 7 C-1.625 4.625 -1.625 4.625 -2 2 C-1.34 1.34 -0.68 0.68 0 0 Z " fill="#D7E3F2" transform="translate(28,41)"/>
<path d="M0 0 C3.3 0 6.6 0 10 0 C9.67 0.66 9.34 1.32 9 2 C6.4375 2.625 6.4375 2.625 4 3 C4.27034634 5.43717258 4.27034634 5.43717258 5 8 C5.99 8.66 6.98 9.32 8 10 C5.36 10 2.72 10 0 10 C0 6.7 0 3.4 0 0 Z " fill="#024BAD" transform="translate(23,53)"/>
<path d="M0 0 C2.97 0 5.94 0 9 0 C9 0.66 9 1.32 9 2 C7.35 2.33 5.7 2.66 4 3 C4.33 5.31 4.66 7.62 5 10 C3.35 10 1.7 10 0 10 C0 6.7 0 3.4 0 0 Z " fill="#074FAF" transform="translate(23,27)"/>
<path d="M0 0 C2.97 0 5.94 0 9 0 C7.02 0.99 7.02 0.99 5 2 C4.18828772 4.55519921 4.18828772 4.55519921 4 7 C5.32 7.99 6.64 8.98 8 10 C5.36 10 2.72 10 0 10 C0 6.7 0 3.4 0 0 Z " fill="#004AAD" transform="translate(23,40)"/>
<path d="M0 0 C1.4540625 0.0309375 1.4540625 0.0309375 2.9375 0.0625 C3.5625 2.4375 3.5625 2.4375 3.9375 5.0625 C3.2775 5.7225 2.6175 6.3825 1.9375 7.0625 C-0.6875 6.6875 -0.6875 6.6875 -3.0625 6.0625 C-3.44468767 4.40635343 -3.77645102 2.73792976 -4.0625 1.0625 C-3.0625 0.0625 -3.0625 0.0625 0 0 Z " fill="#E5ECF6" transform="translate(30.0625,28.9375)"/>
<path d="M0 0 C3.96 0 7.92 0 12 0 C12 0.99 12 1.98 12 3 C8.04 3 4.08 3 0 3 C0 2.01 0 1.02 0 0 Z " fill="#DBE5F3" transform="translate(43,31)"/>
<path d="M0 0 C0.99 0 1.98 0 3 0 C3 2.64 3 5.28 3 8 C1.68 8 0.36 8 -1 8 C-1.125 2.25 -1.125 2.25 0 0 Z " fill="#87AAD8" transform="translate(65,53)"/>
<path d="M0 0 C0.99 0 1.98 0 3 0 C3 2.97 3 5.94 3 9 C1.68 9.33 0.36 9.66 -1 10 C-1.33 9.34 -1.66 8.68 -2 8 C-1.34 8 -0.68 8 0 8 C0 5.36 0 2.72 0 0 Z " fill="#5787C8" transform="translate(68,53)"/>
<path d="M0 0 C0.66 0 1.32 0 2 0 C1.25749403 4.08378283 0.17076699 8.01939223 -1 12 C-1.99 11.34 -2.98 10.68 -4 10 C-3.52449439 8.51965236 -3.04448784 7.04074979 -2.5625 5.5625 C-2.29566406 4.73878906 -2.02882813 3.91507813 -1.75390625 3.06640625 C-1 1 -1 1 0 0 Z " fill="#2665B9" transform="translate(14,24)"/>
<path d="M0 0 C3.96 0 7.92 0 12 0 C12 0.33 12 0.66 12 1 C9.03 1 6.06 1 3 1 C3 1.66 3 2.32 3 3 C1.35 3 -0.3 3 -2 3 C-1.34 2.67 -0.68 2.34 0 2 C0 1.34 0 0.68 0 0 Z " fill="#6390CD" transform="translate(43,83)"/>
<path d="M0 0 C0.928125 0.20625 1.85625 0.4125 2.8125 0.625 C2.8125 1.615 2.8125 2.605 2.8125 3.625 C-1.6425 2.635 -1.6425 2.635 -6.1875 1.625 C-3.1875 -0.375 -3.1875 -0.375 0 0 Z " fill="#2766B9" transform="translate(63.1875,5.375)"/>
<path d="M0 0 C0.33 0 0.66 0 1 0 C0.67 2.97 0.34 5.94 0 9 C-0.66 9 -1.32 9 -2 9 C-1.125 1.125 -1.125 1.125 0 0 Z " fill="#0A51B0" transform="translate(90,48)"/>
<path d="M0 0 C-0.33 0.66 -0.66 1.32 -1 2 C-3.5625 2.625 -3.5625 2.625 -6 3 C-6 2.34 -6 1.68 -6 1 C-6.66 0.67 -7.32 0.34 -8 0 C-4.94736336 -0.98120464 -3.05263664 -0.98120464 0 0 Z " fill="#2765B9" transform="translate(63,83)"/>
<path d="M0 0 C0.33 0.66 0.66 1.32 1 2 C1.66 2.33 2.32 2.66 3 3 C2.34 4.65 1.68 6.3 1 8 C0.01 8 -0.98 8 -2 8 C-1.34 5.36 -0.68 2.72 0 0 Z " fill="#2665B9" transform="translate(87,55)"/>
</svg>
